<?xml version="1.0" standalone="no"?>
<!DOCTYPE svg PUBLIC "-//W3C//DTD SVG 20010904//EN"
 "http://www.w3.org/TR/2001/REC-SVG-20010904/DTD/svg10.dtd">
<svg version="1.0" xmlns="http://www.w3.org/2000/svg"
 width="500.000000pt" height="500.000000pt" viewBox="0 0 500.000000 500.000000"
 preserveAspectRatio="xMidYMid meet">

<g transform="translate(0.000000,500.000000) scale(0.100000,-0.100000)"
fill="#000000" stroke="none">
<path d="M0 2500 l0 -2500 2500 0 2500 0 0 2500 0 2500 -2500 0 -2500 0 0
-2500z m1640 555 l0 -145 -260 0 -260 0 0 -145 0 -145 250 0 250 0 0 -145 0
-145 -250 0 -250 0 0 -145 0 -145 260 0 260 0 0 -145 0 -145 -420 0 -420 0 0
725 0 725 420 0 420 0 0 -145z m631 -265 c82 -223 165 -454 185 -513 20 -60
40 -105 44 -100 4 4 39 98 79 208 39 110 122 337 184 505 l113 305 173 3 c156
2 173 1 167 -14 -3 -8 -135 -335 -293 -725 l-286 -709 -138 0 c-100 0 -138 3
-142 13 -3 6 -134 330 -291 719 -157 389 -286 709 -286 713 0 3 77 4 171 3
l171 -3 149 -405z m1929 265 l0 -145 -260 0 -260 0 0 -145 0 -145 250 0 250 0
0 -145 0 -145 -250 0 -250 0 0 -145 0 -145 260 0 260 0 0 -145 0 -145 -420 0
-420 0 0 725 0 725 420 0 420 0 0 -145z"/>
</g>
</svg>
